<svg width="94" height="10" viewBox="0 0 94 10" fill="none" xmlns="http://www.w3.org/2000/svg">
<path d="M4.338 0.204C4.95 0.204 5.492 0.332 5.964 0.588C6.436 0.839999 6.816 1.178 7.104 1.602C7.392 2.026 7.562 2.492 7.614 3H6.432C6.368 2.66 6.246 2.352 6.066 2.076C5.886 1.8 5.65 1.58 5.358 1.416C5.066 1.252 4.716 1.17 4.308 1.17C3.784 1.17 3.34 1.294 2.976 1.542C2.616 1.786 2.342 2.164 2.154 2.676C1.97 3.188 1.878 3.844 1.878 4.644C1.878 5.852 2.084 6.74 2.496 7.308C2.912 7.872 3.516 8.154 4.308 8.154C4.716 8.154 5.066 8.068 5.358 7.896C5.65 7.724 5.886 7.494 6.066 7.206C6.246 6.918 6.368 6.606 6.432 6.27H7.614C7.57 6.638 7.47 6.994 7.314 7.338C7.162 7.678 6.952 7.982 6.684 8.25C6.416 8.518 6.086 8.73 5.694 8.886C5.306 9.042 4.854 9.12 4.338 9.12C3.558 9.12 2.892 8.942 2.34 8.586C1.792 8.23 1.372 7.718 1.08 7.05C0.792 6.382 0.648 5.576 0.648 4.632C0.648 3.692 0.792 2.892 1.08 2.232C1.368 1.572 1.786 1.07 2.334 0.726C2.886 0.378 3.554 0.204 4.338 0.204ZM14.6777 9.12C13.9057 9.12 13.2377 8.946 12.6737 8.598C12.1097 8.25 11.6737 7.746 11.3657 7.086C11.0617 6.422 10.9097 5.62 10.9097 4.68C10.9097 3.732 11.0637 2.926 11.3717 2.262C11.6797 1.594 12.1157 1.084 12.6797 0.732C13.2477 0.38 13.9137 0.204 14.6777 0.204C15.4457 0.204 16.1097 0.38 16.6697 0.732C17.2297 1.08 17.6617 1.588 17.9657 2.256C18.2697 2.92 18.4217 3.728 18.4217 4.68C18.4217 5.62 18.2697 6.422 17.9657 7.086C17.6657 7.746 17.2357 8.25 16.6757 8.598C16.1157 8.946 15.4497 9.12 14.6777 9.12ZM14.6777 8.154C15.2137 8.154 15.6697 8.032 16.0457 7.788C16.4217 7.544 16.7077 7.166 16.9037 6.654C17.1037 6.142 17.2037 5.488 17.2037 4.692C17.2037 3.884 17.1037 3.22 16.9037 2.7C16.7037 2.18 16.4157 1.796 16.0397 1.548C15.6637 1.296 15.2097 1.17 14.6777 1.17C14.1497 1.17 13.6957 1.296 13.3157 1.548C12.9357 1.8 12.6437 2.186 12.4397 2.706C12.2357 3.226 12.1337 3.888 12.1337 4.692C12.1337 5.488 12.2357 6.142 12.4397 6.654C12.6437 7.166 12.9357 7.544 13.3157 7.788C13.6957 8.032 14.1497 8.154 14.6777 8.154ZM27.8662 0.323999H28.9762V9H27.9862L23.3302 2.16V9H22.2202V0.323999H23.2822L27.8662 7.068V0.323999ZM32.3971 1.344V0.323999H38.9611V1.344H36.3151V9H35.1991V1.344H32.3971ZM40.7597 9L43.8977 0.323999H45.1517L48.2897 9H47.1557L46.3037 6.624H42.7577L41.8877 9H40.7597ZM43.0397 5.604H46.0097L44.5337 1.422L43.0397 5.604ZM54.6974 0.204C55.3094 0.204 55.8514 0.332 56.3234 0.588C56.7954 0.839999 57.1754 1.178 57.4634 1.602C57.7514 2.026 57.9214 2.492 57.9734 3H56.7914C56.7274 2.66 56.6054 2.352 56.4254 2.076C56.2454 1.8 56.0094 1.58 55.7174 1.416C55.4254 1.252 55.0754 1.17 54.6674 1.17C54.1434 1.17 53.6994 1.294 53.3354 1.542C52.9754 1.786 52.7014 2.164 52.5134 2.676C52.3294 3.188 52.2374 3.844 52.2374 4.644C52.2374 5.852 52.4434 6.74 52.8554 7.308C53.2714 7.872 53.8754 8.154 54.6674 8.154C55.0754 8.154 55.4254 8.068 55.7174 7.896C56.0094 7.724 56.2454 7.494 56.4254 7.206C56.6054 6.918 56.7274 6.606 56.7914 6.27H57.9734C57.9294 6.638 57.8294 6.994 57.6734 7.338C57.5214 7.678 57.3114 7.982 57.0434 8.25C56.7754 8.518 56.4454 8.73 56.0534 8.886C55.6654 9.042 55.2134 9.12 54.6974 9.12C53.9174 9.12 53.2514 8.942 52.6994 8.586C52.1514 8.23 51.7314 7.718 51.4394 7.05C51.1514 6.382 51.0074 5.576 51.0074 4.632C51.0074 3.692 51.1514 2.892 51.4394 2.232C51.7274 1.572 52.1454 1.07 52.6934 0.726C53.2454 0.378 53.9134 0.204 54.6974 0.204ZM60.6862 1.344V0.323999H67.2502V1.344H64.6042V9H63.4882V1.344H60.6862ZM75.4468 9V0.323999H76.9828L79.5988 7.488L82.2508 0.323999H83.7808V9H82.6348V1.986L80.1208 9H79.0828L76.5868 2.052V9H75.4468ZM88.0757 9V0.323999H93.5477L93.5417 1.302H89.1917V4.134H93.1097V5.106H89.1857V7.998L93.6617 8.01V9H88.0757Z" fill="#33323D"/>
</svg>
