<svg width="41" height="10" viewBox="0 0 41 10" fill="none" xmlns="http://www.w3.org/2000/svg">
<path d="M5.936 4.998H1.256V9H0.146V0.323999H1.256V4.02H5.936V0.323999H7.046V9H5.936V4.998ZM14.6035 9.12C13.8315 9.12 13.1635 8.946 12.5995 8.598C12.0355 8.25 11.5995 7.746 11.2915 7.086C10.9875 6.422 10.8355 5.62 10.8355 4.68C10.8355 3.732 10.9895 2.926 11.2975 2.262C11.6055 1.594 12.0415 1.084 12.6055 0.732C13.1735 0.38 13.8395 0.204 14.6035 0.204C15.3715 0.204 16.0355 0.38 16.5955 0.732C17.1555 1.08 17.5875 1.588 17.8915 2.256C18.1955 2.92 18.3475 3.728 18.3475 4.68C18.3475 5.62 18.1955 6.422 17.8915 7.086C17.5915 7.746 17.1615 8.25 16.6015 8.598C16.0415 8.946 15.3755 9.12 14.6035 9.12ZM14.6035 8.154C15.1395 8.154 15.5955 8.032 15.9715 7.788C16.3475 7.544 16.6335 7.166 16.8295 6.654C17.0295 6.142 17.1295 5.488 17.1295 4.692C17.1295 3.884 17.0295 3.22 16.8295 2.7C16.6295 2.18 16.3415 1.796 15.9655 1.548C15.5895 1.296 15.1355 1.17 14.6035 1.17C14.0755 1.17 13.6215 1.296 13.2415 1.548C12.8615 1.8 12.5695 2.186 12.3655 2.706C12.1615 3.226 12.0595 3.888 12.0595 4.692C12.0595 5.488 12.1615 6.142 12.3655 6.654C12.5695 7.166 12.8615 7.544 13.2415 7.788C13.6215 8.032 14.0755 8.154 14.6035 8.154ZM22.146 9V0.323999H23.682L26.298 7.488L28.95 0.323999H30.48V9H29.334V1.986L26.82 9H25.782L23.286 2.052V9H22.146ZM34.7749 9V0.323999H40.2469L40.2409 1.302H35.8909V4.134H39.8089V5.106H35.8849V7.998L40.3609 8.01V9H34.7749Z" fill="#5FB4A2"/>
</svg>
