<svg width="82" height="10" viewBox="0 0 82 10" fill="none" xmlns="http://www.w3.org/2000/svg">
<path d="M0.146 9V0.323999H3.08C3.7 0.323999 4.252 0.427999 4.736 0.636C5.22 0.844 5.6 1.152 5.876 1.56C6.156 1.968 6.296 2.47 6.296 3.066C6.296 3.642 6.166 4.134 5.906 4.542C5.65 4.95 5.292 5.26 4.832 5.472C4.372 5.684 3.838 5.79 3.23 5.79H1.286V9H0.146ZM1.28 4.854H3.206C3.802 4.854 4.286 4.688 4.658 4.356C5.03 4.024 5.216 3.572 5.216 3C5.216 2.424 5.024 1.988 4.64 1.692C4.256 1.396 3.76 1.248 3.152 1.248H1.28V4.854ZM13.1035 9.12C12.3315 9.12 11.6635 8.946 11.0995 8.598C10.5355 8.25 10.0995 7.746 9.7915 7.086C9.4875 6.422 9.3355 5.62 9.3355 4.68C9.3355 3.732 9.4895 2.926 9.7975 2.262C10.1055 1.594 10.5415 1.084 11.1055 0.732C11.6735 0.38 12.3395 0.204 13.1035 0.204C13.8715 0.204 14.5355 0.38 15.0955 0.732C15.6555 1.08 16.0875 1.588 16.3915 2.256C16.6955 2.92 16.8475 3.728 16.8475 4.68C16.8475 5.62 16.6955 6.422 16.3915 7.086C16.0915 7.746 15.6615 8.25 15.1015 8.598C14.5415 8.946 13.8755 9.12 13.1035 9.12ZM13.1035 8.154C13.6395 8.154 14.0955 8.032 14.4715 7.788C14.8475 7.544 15.1335 7.166 15.3295 6.654C15.5295 6.142 15.6295 5.488 15.6295 4.692C15.6295 3.884 15.5295 3.22 15.3295 2.7C15.1295 2.18 14.8415 1.796 14.4655 1.548C14.0895 1.296 13.6355 1.17 13.1035 1.17C12.5755 1.17 12.1215 1.296 11.7415 1.548C11.3615 1.8 11.0695 2.186 10.8655 2.706C10.6615 3.226 10.5595 3.888 10.5595 4.692C10.5595 5.488 10.6615 6.142 10.8655 6.654C11.0695 7.166 11.3615 7.544 11.7415 7.788C12.1215 8.032 12.5755 8.154 13.1035 8.154ZM26.85 9H25.674L24.09 5.262H21.756V9H20.646V0.323999H24.006C24.63 0.323999 25.152 0.419999 25.572 0.611999C25.992 0.799999 26.306 1.072 26.514 1.428C26.722 1.78 26.826 2.202 26.826 2.694C26.826 3.166 26.742 3.558 26.574 3.87C26.41 4.182 26.2 4.434 25.944 4.626C25.688 4.814 25.422 4.96 25.146 5.064L26.85 9ZM23.646 4.344C24.298 4.344 24.802 4.212 25.158 3.948C25.514 3.68 25.692 3.284 25.692 2.76C25.692 2.248 25.532 1.866 25.212 1.614C24.896 1.358 24.462 1.23 23.91 1.23H21.756V4.344H23.646ZM29.7799 1.344V0.323999H36.3439V1.344H33.6979V9H32.5819V1.344H29.7799ZM39.7749 0.323999H45.1809L45.1749 1.296H40.9149V4.164H44.7429V5.124H40.9149V9H39.7749V0.323999ZM52.1699 9.12C51.3979 9.12 50.7299 8.946 50.1659 8.598C49.6019 8.25 49.1659 7.746 48.8579 7.086C48.5539 6.422 48.4019 5.62 48.4019 4.68C48.4019 3.732 48.5559 2.926 48.8639 2.262C49.1719 1.594 49.6079 1.084 50.1719 0.732C50.7399 0.38 51.4059 0.204 52.1699 0.204C52.9379 0.204 53.6019 0.38 54.1619 0.732C54.7219 1.08 55.1539 1.588 55.4579 2.256C55.7619 2.92 55.9139 3.728 55.9139 4.68C55.9139 5.62 55.7619 6.422 55.4579 7.086C55.1579 7.746 54.7279 8.25 54.1679 8.598C53.6079 8.946 52.9419 9.12 52.1699 9.12ZM52.1699 8.154C52.7059 8.154 53.1619 8.032 53.5379 7.788C53.9139 7.544 54.1999 7.166 54.3959 6.654C54.5959 6.142 54.6959 5.488 54.6959 4.692C54.6959 3.884 54.5959 3.22 54.3959 2.7C54.1959 2.18 53.9079 1.796 53.5319 1.548C53.1559 1.296 52.7019 1.17 52.1699 1.17C51.6419 1.17 51.1879 1.296 50.8079 1.548C50.4279 1.8 50.1359 2.186 49.9319 2.706C49.7279 3.226 49.6259 3.888 49.6259 4.692C49.6259 5.488 49.7279 6.142 49.9319 6.654C50.1359 7.166 50.4279 7.544 50.8079 7.788C51.1879 8.032 51.6419 8.154 52.1699 8.154ZM59.7184 0.323999H60.8524V8.004H64.9504V9H59.7124L59.7184 0.323999ZM68.6382 0.323999H69.7482V9H68.6382V0.323999ZM77.3066 9.12C76.5346 9.12 75.8666 8.946 75.3026 8.598C74.7386 8.25 74.3026 7.746 73.9946 7.086C73.6906 6.422 73.5386 5.62 73.5386 4.68C73.5386 3.732 73.6926 2.926 74.0006 2.262C74.3086 1.594 74.7446 1.084 75.3086 0.732C75.8766 0.38 76.5426 0.204 77.3066 0.204C78.0746 0.204 78.7386 0.38 79.2986 0.732C79.8586 1.08 80.2906 1.588 80.5946 2.256C80.8986 2.92 81.0506 3.728 81.0506 4.68C81.0506 5.62 80.8986 6.422 80.5946 7.086C80.2946 7.746 79.8646 8.25 79.3046 8.598C78.7446 8.946 78.0786 9.12 77.3066 9.12ZM77.3066 8.154C77.8426 8.154 78.2986 8.032 78.6746 7.788C79.0506 7.544 79.3366 7.166 79.5326 6.654C79.7326 6.142 79.8326 5.488 79.8326 4.692C79.8326 3.884 79.7326 3.22 79.5326 2.7C79.3326 2.18 79.0446 1.796 78.6686 1.548C78.2926 1.296 77.8386 1.17 77.3066 1.17C76.7786 1.17 76.3246 1.296 75.9446 1.548C75.5646 1.8 75.2726 2.186 75.0686 2.706C74.8646 3.226 74.7626 3.888 74.7626 4.692C74.7626 5.488 74.8646 6.142 75.0686 6.654C75.2726 7.166 75.5646 7.544 75.9446 7.788C76.3246 8.032 76.7786 8.154 77.3066 8.154Z" fill="#33323D"/>
</svg>
